# xmcd
#
# Track frame offsets: 
#        150
#        12199
#        30107
#        42639
#        53398
#        67954
#        88036
#        101839
#        120910
#        132901
#        145904
#        159412
#        196920
#        211343
#        226520
#        241794
#        253347
#        268643
#
# Disc length: 3728 seconds
#
# Revision: 0
# Processed by: cddbd v1.5.2PL0 Copyright (c) Steve Scherf et al.
# Submitted via: ExactAudioCopy v0.95b3
#
DISCID=e40e8e12
DTITLE=The Beatles  - The Beatles Deluxe - Disc 02 - stereo  PC-132  F
DTITLE=LAC
DYEAR=1900
DGENRE=
TTITLE0=Birthday (stereo)
TTITLE1=Yer Blues (stereo)
TTITLE2=Mother Nature's Son (stereo)
TTITLE3=Everybody's Got Something To Hide Except Me And My Monkey (ste
TTITLE3=reo)
TTITLE4=Sexy Sadie (stereo)
TTITLE5=Helter Skelter (stereo)
TTITLE6=Long Long Long (stereo)
TTITLE7=Revolution 1 (stereo)
TTITLE8=Honey Pie (stereo)
TTITLE9=Savoy Truffle (stereo)
TTITLE10=Cry Baby Cry (stereo)
TTITLE11=Revolution 9 (stereo)
TTITLE12=Good Night (stereo)
TTITLE13=While My Guitar Gently Weeps demo (Love)
TTITLE14=Revolution (Love)
TTITLE15=Back In The USSR (Love)
TTITLE16=Revolution (Past Masters)
TTITLE17=Anthology medley
EXTD=
EXTT0=
EXTT1=
EXTT2=
EXTT3=
EXTT4=
EXTT5=
EXTT6=
EXTT7=
EXTT8=
EXTT9=
EXTT10=
EXTT11=
EXTT12=
EXTT13=
EXTT14=
EXTT15=
EXTT16=
EXTT17=
PLAYORDER=
